<?xml version="1.0" encoding="UTF-8" standalone="no"?>
<svg
   id="svg"
   width="400"
   height="333.2295719844358"
   viewBox="0, 0, 400,333.2295719844358"
   version="1.1"
   sodipodi:docname="wizard.svg"
   inkscape:version="1.1.1 (3bf5ae0d25, 2021-09-20)"
   xmlns:inkscape="http://www.inkscape.org/namespaces/inkscape"
   xmlns:sodipodi="http://sodipodi.sourceforge.net/DTD/sodipodi-0.dtd"
   xmlns:xlink="http://www.w3.org/1999/xlink"
   xmlns="http://www.w3.org/2000/svg"
   xmlns:svg="http://www.w3.org/2000/svg">
  <defs
     id="defs22">
    <clipPath
       clipPathUnits="userSpaceOnUse"
       id="clipPath172">
      <use
         x="0"
         y="0"
         xlink:href="#g168"
         id="use174"
         width="100%"
         height="100%" />
    </clipPath>
  </defs>
  <sodipodi:namedview
     id="namedview20"
     pagecolor="#505050"
     bordercolor="#ffffff"
     borderopacity="1"
     inkscape:pageshadow="0"
     inkscape:pageopacity="0"
     inkscape:pagecheckerboard="1"
     showgrid="false"
     inkscape:zoom="2.8284271"
     inkscape:cx="320.56156"
     inkscape:cy="215.57468"
     inkscape:window-width="2736"
     inkscape:window-height="1790"
     inkscape:window-x="-11"
     inkscape:window-y="-11"
     inkscape:window-maximized="1"
     inkscape:current-layer="svg"
     inkscape:rotation="-1" />
  <path
     style="color:#000000;fill:#000000;fill-rule:evenodd;stroke:none;stroke-width:12;stroke-linejoin:round;-inkscape-stroke:none;paint-order:markers stroke fill"
     d="M 149.66094,86.118507 C 137.47106,81.150365 123.84758,69.421362 77.178906,65.93527 c -6.29163,-0.4799 -11.214137,0.811778 -16.29008,5.0972 -4.126069,3.48348 -4.260683,10.472637 -1.577013,15.561046 2.999734,5.687686 8.375869,11.897907 11.961404,15.778494 -2.680157,-5e-4 1.3264,9.19127 0.04775,10.68202 -4.443368,19.68997 -7.023986,30.18328 1.803277,32.49461 6.414617,1.67959 14.498086,5.72909 19.776027,8.89344 3.806545,2.28218 6.708147,4.46202 9.363289,6.28732 -13.06251,11.69652 8.55013,61.88694 25.83781,51.16323 13.49178,25.02401 13.33376,25.92764 13.10421,38.87023 -9.46688,9.97515 -8.93366,15.94173 -7.18559,25.94535 v 0.006 c 2.63975,11.06621 5.91664,18.80833 12.26386,25.2835 9.01809,9.11233 26.33893,15.75332 37.91409,11.72656 4.75625,8.01659 12.46099,15.50104 20.53726,17.76391 5.90444,1.56838 12.49119,0.89912 17.59961,-3.01953 6.32526,-5.07151 8.93001,-10.25753 10.2307,-12.74834 0.41075,-0.77814 0.777,-1.5205 1.12305,-2.24609 1.48962,-0.42066 2.70727,-0.64565 3.02748,-0.68369 0.64071,0.91997 1.20756,1.94704 1.9043,2.77735 3.01895,3.59772 6.60911,6.46253 11.09961,7.57422 4.49049,1.11168 9.87676,-0.3183 13.45898,-3.90625 7.91829,-7.92956 7.85099,-20.30215 5.15039,-31.35743 -0.48976,-2.00491 -1.1966,-3.9669 -1.89258,-5.92382 5.11321,0.39915 9.40865,1.78525 14.26563,0.98242 4.07715,-0.69209 8.20722,-2.93679 10.45898,-6.61914 2.25176,-3.68236 2.71561,-7.87488 2.57813,-12.625 v -0.002 c -0.19154,-6.58309 -1.38577,-11.84731 -4.48828,-20.22265 v -0.002 c -2.50859,-6.76963 -6.27095,-12.78994 -10.72461,-17.45703 -1.7105,-1.79246 -9.57057,-8.10768 -11.49869,-9.46828 8.30314,-5.72816 16.65201,-5.51042 25.19828,-6.25382 53.81526,10.68975 6.99804,-59.49645 -39.41827,-75.12174 8.83958,-18.97106 30.00253,-36.734777 43.53278,-46.370061 9.18267,13.313731 12.71373,43.570411 14.17985,76.067311 0.16885,3.74267 3.87907,3.00489 4.26367,-0.1758 1.76122,-14.5657 3.17214,-30.504 3.17968,-44.02758 -0.067,-14.7025 2.0168,-61.942466 -18.98689,-81.19325 -5.01502,-3.44345 -13.62372,-6.625823 -25.21272,-6.240153 -29.45093,1.104496 -48.06873,13.890724 -65.43915,22.122738 -9.32715,4.160988 -15.98708,7.034305 -29.45892,13.374075 -2.68879,1.276107 -8.82491,4.179817 -10.28293,4.16892 -8.2249,-0.06147 -14.63432,9.584642 -18.92234,13.226927 z"
     id="path3831"
     sodipodi:nodetypes="ccssccssccccccccccccsscsccsssccsccccsscccccscc" />
  <g
     inkscape:label="Clip"
     id="g168"
     style="fill:#ffffff;stroke:#000000;stroke-opacity:1;stroke-width:3;stroke-miterlimit:4;stroke-dasharray:none;stroke-linejoin:round;paint-order:markers stroke fill;stroke-linecap:butt">
    <g
       id="svgg"
       style="fill:#ffffff;stroke:#000000;stroke-opacity:1;stroke-width:3;stroke-miterlimit:4;stroke-dasharray:none;stroke-linejoin:round;paint-order:markers stroke fill;stroke-linecap:butt">
      <path
         id="path306"
         d="m 262.234,14.591 c -6.955,7.123 -8.197,14.416 -3.308,19.427 1.151,1.179 1.154,1.165 -0.327,1.539 -3.453,0.872 -15.33,5.092 -26.29,9.339 -9.152,3.548 -11.243,4.425 -17.89,7.502 -3.412,1.58 -6.219,2.851 -6.237,2.825 -3.697,-5.311 -11.639,-13.05 -17.365,-16.921 -12.679,-8.573 -23.766,-9.627 -28.28,-2.687 -4.287,6.593 3.095,18.458 18.609,29.91 l 2.39,1.765 c -1.93647,1.583701 -3.54103,3.086776 -5.487,4.617 -9.35061,-10.165015 -29.47389,-31.130771 -25.229,-41.401 1.64,-3.169 4.17,-5.011 9.061,-6.599 6.516,-2.116 17.283,-3.018 28.08,-2.352 31.048,1.913 60.303,-1.491 73.311,-8.529 0.889,-0.481 0.736,-0.251 -1.038,1.565 m 76.443,1.651 c 0,0.031 -0.323,0.714 -0.718,1.518 -5.338,10.872 -7.687,19.482 -7.687,28.181 0,4.042 0.227,5.373 1.843,10.81 1.818,6.118 6.768,11.135 14.27,14.465 13.082,5.807 29.415,10.022 44.308,11.435 2.751,0.261 3.077,0.364 1.914,0.6 -17.44201,4.836774 -25.37602,20.21483 -12.933,29.439 4.417,3.25 5.529,4.102 5.535,4.242 0.007,0.161 -0.165,0.065 -3.555,-1.985 -15.653,-9.463 -29.77,-14.335 -38.074,-13.138 -8.491,1.223 -12.426,10.529 -12.445,29.436 -0.004,3.317 -0.045,6.031 -0.092,6.031 -0.046,0 -0.171,-0.508 -0.277,-1.128 -0.106,-0.621 -0.546,-2.844 -0.978,-4.942 -3.145,-15.274 -7.862,-28.745 -12.222,-34.903 l -0.523,-0.74 v -2.528 c -0.001,-16.119 -2.54,-30.552 -6.86,-38.996 -2.859,-5.587 -7.505,-11.799 -10.509,-14.05 l -0.697,-0.523 1.99,-0.512 c 11.9505,-3.726168 27.85119,-10.973588 36.318,-21.357 0.973,-1.201 1.392,-1.609 1.392,-1.355 m -59.329,22.836 c 4.033,0.296 9.755,1.959 12.399,3.604 19.73582,12.192023 21.81697,39.727532 22.655,58.252 0.086,2.226 0.232,5.552 0.326,7.393 1.04048,17.69787 -0.24354,31.18094 -1.3745,48.0605 -0.178,2.719 -0.5785,8.4375 -0.8105,8.4375 -0.05,0 -0.094,-3.835 -0.098,-8.522 -0.18139,-19.67197 -3.60952,-57.78074 -13.988,-72.565 -3.628,0.061 -23.69,6.697 -40.091,13.261 -5.882,2.355 -6.07,2.428 -6.07,2.375 0,-0.028 -0.438,0.126 -0.973,0.342 -0.535,0.217 -1.463,0.589 -2.062,0.828 -2.022,0.805 -7.925,3.438 -9.775,4.36 -1.197,0.597 -1.859,0.851 -1.901,0.729 -0.036,-0.102 -0.305,-1.131 -0.599,-2.287 -2.899,-11.401 -7.912,-18.727 -17.286,-25.265 -2.346,-1.636 -7.177,-4.154 -9.739,-5.076 -0.3,-0.108 -0.685,-0.253 -0.856,-0.324 -0.171,-0.07 -0.512,-0.171 -0.756,-0.225 -0.245,-0.053 -0.736,-0.229 -1.09,-0.391 -3.008,-1.371 -14.00648,-2.481126 -17.10748,-1.921126 0.84637,-0.591256 3.47595,-1.774864 6.26848,-3.185874 4.439,-2.245 8.348,-4.113 11.206,-5.356 0.985,-0.428 3.366,-1.499 5.292,-2.38 9.842,-4.503 37.597,-15.072 48.483,-18.462 5.103,-1.59 11.293,-2.17 17.947,-1.682 M 57.151,41.963 c 20.764,12.766 41.413,23.311 48.407,24.721 8.366,1.687 9.755,-5.888 3.046,-16.614 -1.51,-2.413 -1.469,-2.569 0.219,-0.845 16.408,16.749 43.07104,23.897213 58.98677,25.146058 -2.62737,1.621093 -11.08116,6.04063 -15.59177,9.383942 -1.413,1.069 -2.648,1.992 -2.745,2.05 -0.097,0.058 -1.218,-0.32 -2.49,-0.841 C 122.705,75.034 97.487,67.767 82.143,66.279 L 80.162,66.087 79.581,65.145 C 76.791,60.624 68.157,52.011 57.043,42.665 54.584,40.597 54.614,40.404 57.151,41.963 m 20.592,34.703 c 6.215,0.448 15.794,2.553 29.806,6.55 7.248,2.068 10.372,3.144 27.663,9.531 5.584,2.063 10.22,3.751 10.302,3.751 0.341,0 0.276,0.307 -0.251,1.179 -4.058,6.708 -7.188,15.587 -7.837,22.228 l -0.196,2.006 -1.752,0.826 c -2.711,1.279 -4.076,1.612 -8.017,1.955 l -1.956,0.171 -1.94,-1.93 c -5.326,-5.299 -11.948,-8.036 -20.116,-8.313 l -3.243,-0.11 c -4.848721,-3.70103 -9.882616,-7.9573 -13.98,-11.38 -2.757,-2.229 -12.399406,-11.403202 -13.83,-13.32 -1.464487,-1.962211 -8.794681,-10.049589 -5.917,-12.314 1.465619,-1.153277 4.613,-1.31 11.264,-0.83 m 121.946,1.849 c 15.183,2.508 27.524,11.334 32.27,23.08 0.518,1.282 0.411,1.237 -1.113,-0.473 -4.534,-5.088 -11.527,-9.705 -17.941,-11.843 -5.634,-1.879 -9.49,-2.427 -18.742,-2.663 -4.203,-0.108 -4.176,-0.145 -1.045,1.457 1.958,1.002 6.332,3.694 8.553,5.266 1.438,1.017 4.648,4.136 5.519,5.362 0.283,0.399 1.013,1.414 1.623,2.257 0.61,0.843 1.41,2.093 1.779,2.777 l 0.669,1.246 -1.623,-1.56 c -5.708,-5.487 -10.604,-8.027 -19.26,-9.994 -0.373,-0.085 -0.186,0.211 3.74,5.919 2.883,4.192 6.379,12.046 7.217,16.218 0.138,0.685 0.288,1.409 0.335,1.61 0.076,0.329 -0.04,0.286 -1.221,-0.456 -11.801,-7.417 -26.727,-7.523 -39.732,-0.283 -7.901,4.398 -17.10794,13.73597 -21.24994,21.10097 0.25353,-10.67218 6.73649,-29.93814 15.63894,-40.64897 10.733,-12.654 30.323,-20.727 44.583,-18.372 m 7.037,13.633 c 0.88,0.176 1.776,0.352 1.99,0.392 7.906,1.474 18.177,7.634 23.159,13.888 1.538,1.931 1.526,1.77 0.183,2.446 -6.937,3.493 -18.258,10.449 -23.459,14.414 -1.961,1.496 -2.218,1.648 -2.218,1.322 0,-1.392 -2.21,-11.028 -3.109,-13.559 -0.183,-0.514 -0.574,-1.658 -0.87,-2.543 -0.296,-0.884 -0.67,-1.9 -0.831,-2.257 -0.161,-0.356 -0.588,-1.348 -0.951,-2.203 -0.362,-0.855 -1.105,-2.355 -1.651,-3.334 -1.002,-1.796 -1.103,-2.037 -0.857,-2.037 0.194,0 2.499,0.761 3.055,1.008 2.783,1.239 3.793,1.723 4.107,1.969 0.204,0.16 0.431,0.292 0.504,0.292 0.235,0 3.685,2.3 4.374,2.916 1.039,0.93 2.154,1.794 2.224,1.724 0.035,-0.035 -0.042,-0.445 -0.171,-0.912 -0.129,-0.467 -0.265,-0.989 -0.302,-1.16 -0.236,-1.095 -2.07,-5.408 -2.878,-6.77 -1.379,-2.324 -3.616,-5.386 -4.076,-5.578 -0.175,-0.073 -0.155,-0.337 0.026,-0.337 0.083,0 0.871,0.144 1.751,0.319 m -117.362,25.284 -1.288,0.7 c -8.93,4.858 -15.858,15.609 -15.858,24.609 0,0.6 -0.053,1.059 -0.117,1.019 -1.16,-0.708 -14.108,-2.547 -20.583,-2.923 -4.1,-0.238 -4.148,-0.298 -0.545,-0.677 11.545,-1.216 17.976,-4.197 17.976,-8.331 0,-2.642 -1.465,-4.029 -7.237,-6.849 -7.977,-3.897 -28.73,-10.995 -46.887,-16.037 -2.097,-0.582 -3.258,-1.123 -1.868,-0.87 6.401,1.165 24.686,2.758 33.891,2.952 9.035,0.191 18.828524,-3.24242 25.248524,-7.68142 M 167.262,120.754 c 4.47172,4.00712 7.28095,12.54263 8.05321,15.78312 -3.28836,-2.9716 -8.64187,-5.17929 -12.49621,-2.84012 -3.697,2.39 -6.211,7.211 -6.238,11.963 l -0.005,0.835 0.982,-0.919 c 4.803,-4.493 10.318,2.373 8.905,11.087 -1.221,7.529 -6.44,10.851 -9.924,6.317 -0.273,-0.355 -0.542,-0.645 -0.597,-0.645 -0.194,0 0.328,2.668 0.694,3.548 0.203,0.488 0.489,1.373 0.636,1.966 0.326,1.321 0.783,2.369 1.557,3.577 l 0.591,0.921 -0.527,0.431 c -1.591,1.303 -10.111,6.249 -15.736,9.135 l -2.135,1.096 -0.761,-1.038 c -5.13,-6.997 -6.767,-18.032 -4.618,-31.128 1.234,-7.52 3.439,-12.17 7.16,-15.097 0.223,-0.175 1.189,-1.053 2.147,-1.95 5.42376,-5.57514 18.72903,-12.42161 21.45683,-13.73526 M 110.067,120.748 c 3.963,0.867 8.015,2.738 12.103,5.587 1.153,0.804 4.25167,3.92224 5.301,5.334 0.47067,0.63324 1.18921,1.5669 2.35499,3.52248 -8.99164,-3.90531 -30.183597,-5.83098 -38.73599,1.85952 -1.262,1.208 -1.251,1.217 -0.823,-0.664 1.11,-4.879 4.089,-8.73 8.452,-10.925 0.92,-0.463 1.648,-0.866 1.619,-0.896 -0.089,-0.088 -5.531,1.161 -6.631,1.522 -8.522,2.8 -15.071,8.901 -17.599,16.395 -0.962,2.85 -1.137,2.379 -0.461,-1.238 0.889,-4.749 6.055,-12.267 10.392,-15.124 4.799,-3.16 8.558,-4.62 14.194,-5.513 2.553,-0.404 7.679,-0.331 9.834,0.14 m 148.926,5.867 c 3.01,4.444 4.86,9.504 5.462,14.941 0.258,2.333 0.267,8.815 0.014,10.584 -0.76,5.322 -2.493,11.72 -4.193,15.486 -0.213,0.471 -0.498,1.137 -0.634,1.479 -0.5,1.264 -4.311,8.643 -4.669,9.041 -0.084,0.094 -0.319,0.479 -0.522,0.857 -0.202,0.377 -0.98,1.616 -1.729,2.753 -0.748,1.137 -1.36,2.118 -1.361,2.179 0,0.061 -0.197,0.322 -0.438,0.579 -0.24,0.256 -0.692,0.837 -1.003,1.289 -1.421,2.068 -5.626,7.504 -5.804,7.504 -0.04,0 -0.579,-0.426 -1.199,-0.948 -1.498,-1.261 -4.246,-3.307 -5.835,-4.345 -1.54,-1.006 -1.52,-0.855 -0.234,-1.797 5.084,-3.726 10.09,-8.349 13.217,-12.208 0.243,-0.299 0.614,-0.741 0.825,-0.982 0.512,-0.585 1.29,-1.676 2.758,-3.871 3.761,-5.622 5.292,-9.315 6.508,-15.693 0.68307,-4.23512 0.80431,-8.54101 0.253,-12.695 -1.18693,-4.82588 -2.50301,-7.25864 -5.273,-10.305 l 0.755,-1.457 c 0.416,-0.802 0.918,-1.773 1.115,-2.158 0.663,-1.291 0.757,-1.42 1.004,-1.371 0.135,0.027 0.577,0.539 0.983,1.138 M 91.007129,128.92706 C 88.958624,132.36333 86.346,139.787 85.78,146.192 c -0.165,1.864 -0.059,1.773 -1.441,1.226 -1.446,-0.573 -6.915,-2.36 -7.222,-2.36 -1.602,0 4.944541,-9.72744 7.654,-12.187 2.027822,-1.84079 5.372891,-3.83096 6.236129,-3.94394 M 108.121,135.513 c -1.811,3.59 -3.058,10.4 -3.061,16.716 l -0.002,3.202 -0.597,1.396 c -0.909,2.128 -0.723,2.037 -1.971,0.966 -3.736,-3.206 -10.26,-7.203 -14.513,-8.89 -0.779,-0.309 -0.775,-0.289 -0.23,-1.236 2.547,-4.428 4.546,-6.868 7.006,-8.551 0.404,-0.276 0.831,-0.598 0.951,-0.716 1.345,-1.322 6.946,-3.172 11.085,-3.661 1.851,-0.219 1.837,-0.227 1.332,0.774 m 10.169,-0.332 c 4.88,0.671 6.70457,1.12032 8.69025,1.85076 0.70099,1.32604 1.07721,4.11639 1.07775,4.33424 -1.006,-0.798 -3.911,-0.874 -5.44,-0.142 -2.484,1.188 -4.464,4.488 -4.732,7.884 l -0.104,1.32 0.603,-0.576 c 3.223,-3.077 7.096,1.16 6.324,6.92 -0.713,5.322 -3.963,7.873 -6.611,5.188 l -0.782,-0.793 0.114,0.856 c 0.063,0.471 0.216,1.137 0.34,1.479 0.124,0.342 0.435,1.253 0.692,2.023 1.723,5.171 6.578,6.856 10.247,3.557 1.058,-0.952 1.078,-0.867 0.317,1.373 -3.366,9.905 -9.161,13.139 -14.268,7.965 -2.79,-2.826 -5.299,-8.957 -5.955,-14.553 -0.318,-2.714 -0.5,-2.175 2.519,-7.447 1.495,-2.611 2.699,-4.77 2.676,-4.798 -0.022,-0.028 -1.255,0.86 -2.738,1.975 -1.764,1.324 -2.734,1.962 -2.801,1.841 -0.453,-0.811 0.89,-10.241 1.911,-13.415 0.418,-1.301 2.944,-6.605 3.417,-7.175 0.177,-0.212 0.963,-0.154 4.503,0.333 m 135.839,1.226 c 0.513,0.378 1.321,0.944 1.794,1.259 0.979,0.65 1.2,1.272 1.494,4.202 0.179,1.792 0.243,1.758 -1.348,0.71 -0.748,-0.493 -1.978,-1.296 -2.732,-1.784 l -1.371,-0.886 0.074,-0.673 c 0.091,-0.836 0.885,-3.515 1.041,-3.515 0.063,0 0.534,0.309 1.048,0.687 m 52.016,6.511 c -0.69442,2.0576 -2.15409,3.76787 -2.966,5.798 -2.614,6.695 -2.844,12.366 -0.747,18.442 0.251,0.727 0.492,1.526 0.536,1.776 0.095,0.539 2.395,5.28 3.104,6.397 2.299,3.626 3.733,5.616 5.817,8.08 1.06,1.252 5.888,6.112 6.306,6.348 0.107,0.06 0.504,0.401 0.883,0.758 1.64,1.547 5.161,4.291 8.038,6.266 0.704,0.483 1.404,0.983 1.557,1.111 0.152,0.128 0.416,0.341 0.588,0.473 0.284,0.22 0.178,0.232 -1.25,0.141 -4.108,-0.262 -7.127,0.859 -9.724,3.612 -3.414,3.62 -3.511,9.287 -0.214,12.431 1.095,1.043 1.047,1.11 -0.505,0.708 -0.674,-0.174 -1.506,-0.344 -1.848,-0.378 -0.343,-0.033 -1.673,-0.276 -2.957,-0.539 -9.205,-1.888 -18.688,-2.427 -29.183,-1.66 -2.334,0.171 -7.04,1.086 -9.961,1.937 -2.872,0.837 -3.396,1.003 -3.969,1.257 -2.6928,0.90985 -5.91987,2.99764 -7.863,2.864 l -1.544,-0.107 -0.181,-0.562 c -0.1,-0.308 -0.459,-1.262 -0.799,-2.118 -0.339,-0.856 -0.643,-1.688 -0.674,-1.849 -0.236,-1.201 -4.387,-8.682 -6.269,-11.298 -0.399,-0.554 -0.838,-1.184 -0.977,-1.401 -0.139,-0.216 -0.542,-0.703 -0.895,-1.081 -1.287,-1.377 -1.896,-1.517 8.346,1.928 1.904,0.64 3.463,1.127 3.463,1.081 0,-0.045 0.086,-0.03 0.192,0.036 9.35796,2.69888 20.5333,6.55124 29.224,7.081 0.214,0.004 1.3,0.122 2.413,0.262 4.672,0.589 13.183,0.251 15.461,-0.615 7.1,-2.7 8.84,-8.217 5.074,-16.089 -9.0064,-13.85766 -20.2972,-23.46823 -33.298,-33.395 -0.599,-0.456 -1.16,-0.91 -1.245,-1.008 -4.25277,-3.24046 -9.22502,-6.82711 -13.19763,-9.57637 0.061,-0.267 0.24063,-2.28163 0.22763,-3.84663 -0.022,-2.66 -0.0294,-2.36725 -0.0186,-2.75478 2.052,1.074 9.71462,3.04378 13.27662,3.42678 0.501,0.054 1.096,0.138 1.323,0.186 0.555,0.117 8.148,0.109 9.128,-0.01 2.873,-0.35 6.147,-1.01 7.471,-1.507 0.514,-0.193 1.494,-0.546 2.179,-0.784 1.396,-0.486 4.73741,-2.12725 5.279,-2.329 0.26828,-0.14149 0.53663,0.15269 0.399,0.508 M 19.72,154.42 c 15.055,11.022 30.758,14.818 40.773,9.856 1.096,-0.543 2.01,-0.969 2.031,-0.947 0.022,0.021 -0.487,0.735 -1.132,1.585 -4.817,6.355 -5.506,13.564 -1.654,17.316 3.008,2.931 5.275,3.518 9.442,2.449 9.043,-2.322 25.075,-13.681 40.262,-28.528 2.654,-2.595 3.223,-3.081 2.74,-2.338 -0.126,0.193 -0.626,0.981 -1.112,1.751 -0.486,0.771 -1.41,2.136 -2.053,3.035 -12.244,17.103 -12.446,32.606 -0.457,35.098 11.26,2.34 36.746,-6.912 55.799,-20.257 1.204,-0.843 2.506,-1.744 2.893,-2 0.387,-0.257 1.301,-0.91 2.032,-1.452 0.73,-0.541 1.349,-0.962 1.374,-0.934 0.026,0.028 -0.258,0.962 -0.629,2.074 -2.176,6.513 -2.316,15.052 -0.299,18.226 0.114,0.179 0.311,0.575 0.438,0.879 l 0.232,0.554 -1.659,1.371 c -15.976,13.206 -23.652,34.46 -19.851,54.961 0.066,0.354 0.03,0.523 -0.118,0.566 -0.116,0.035 -0.826,0.206 -1.578,0.382 -0.751,0.176 -1.917,0.558 -2.592,0.85 l -1.227,0.53 -1.943,-2.275 c -22.564,-26.419 -40.666,-33.632 -50.613,-20.168 -4.585,6.207 -6.083,16.515 -3.986,27.432 0.28,1.459 0.198,1.923 -0.152,0.856 -3.064,-9.343 -11.809,-25.373 -18.276,-33.502 -11.321,-14.229 -23.391,-16.577 -30.032,-5.842 -0.504,0.815 -0.933,1.465 -0.952,1.444 -0.02,-0.021 0.096,-0.807 0.257,-1.748 2.816,-16.457 -1.549,-35.962 -11.53,-51.519 -2.748,-4.283 -4.145,-6.098 -8.304,-10.779 -0.567,-0.639 -0.089,-0.365 1.876,1.074 m 191.875,38.182 c 9.458,0.953 19.856,5.278 26.537,11.039 5.286,4.558 8.046,7.683 11.02,12.481 0.794,1.279 2.366,4.306 2.366,4.553 0,0.075 -0.893,0.841 -1.985,1.702 -4.841,3.817 -6.261,6.763 -6.263,12.994 -0.004,7.031 2.897,15.132 8.337,23.283 l 0.66,0.989 -0.266,0.957 c -0.397,1.429 -1.137,2.91 -1.417,2.84 -0.129,-0.032 -1.214,-0.349 -2.413,-0.703 -10.199,-3.018 -17.99,5.23 -18.4,19.481 l -0.088,3.075 -0.873,0.476 c -3.816,2.084 -11.159,4.255 -15.514,4.587 l -1.411,0.108 -0.27,-0.757 c -1.301,-3.65 -2.158,-5.296 -3.866,-7.43 -6.996,-8.743 -20.103,-8.62 -26.234,0.246 l -0.615,0.89 -1.532,-0.944 c -1.87,-1.152 -3.264,-2.276 -5.898,-4.756 l -2.017,-1.898 0.04,-2.694 c 0.183,-12.398 -4.071,-20.914 -12.141,-24.304 -1.566,-0.658 -1.471,-0.47 -1.756,-3.466 -1.131,-11.889 2.342,-23.68 10.036,-34.067 3.208,-4.331 9.978,-10.083 15.17,-12.888 8.933,-4.829 18.755,-6.805 28.793,-5.794 m -17.354,13.132 c 0,6.153 -3.496,12.444 -7.254,13.054 -0.687,0.111 -0.669,0.286 0.056,0.521 3.709,1.204 6.761,7.109 8.202,15.866 0.133,0.813 0.281,1.708 0.328,1.989 0.111,0.666 0.38,0.491 0.381,-0.247 0.002,-1.108 1.093,-8.524 1.413,-9.602 1.007,-3.395 3.57,-6.481 6.73,-8.103 1.193,-0.613 1.445,-0.846 0.911,-0.846 -0.156,0 -0.802,-0.176 -1.434,-0.391 -4.411,-1.5 -7.437,-5.403 -8.856,-11.418 -0.358,-1.518 -0.477,-1.724 -0.477,-0.823 m 67.775,17.152 c 7.869,0.901 16.995,10.465 21.444,22.471 3.012,8.131 3.941,12.265 4.117,18.314 0.241,8.327 -2.094,12.145 -8.044,13.155 -2.103,0.357 -2.976,0.281 -9.105,-0.796 -2.873,-0.505 -5.688,-0.567 -7.233,-0.16 -0.682,0.18 -1.025,0.211 -1.063,0.098 -0.721,-2.163 -5.445,-8.199 -7.868,-10.054 -0.683,-0.522 -0.989,-0.855 -0.931,-1.011 0.047,-0.129 0.403,-1.039 0.79,-2.024 1.012,-2.576 1.023,-2.393 -0.284,-4.747 -6.445,-11.606 -8.728,-22.348 -5.953,-28.011 1.038,-2.118 2.639,-3.936 4.131,-4.688 0.453,-0.228 0.861,-0.474 0.908,-0.546 0.416,-0.647 4.851,-1.919 7.464,-2.141 0.129,-0.011 0.861,0.052 1.627,0.14 m -83.495,2.376 c 0,3.912 -2.109,7.906 -4.585,8.681 -0.754,0.236 -1.048,0.454 -0.612,0.454 2.157,0 4.674,4.45 5.748,10.163 0.447,2.376 0.665,3.15 0.684,2.425 0.169,-6.533 2.362,-11.144 6.081,-12.78 l 0.7,-0.308 -0.839,-0.219 c -2.128,-0.557 -4.264,-2.296 -5.341,-4.349 -0.61,-1.163 -1.524,-3.71 -1.524,-4.245 0,-0.175 -0.07,-0.362 -0.156,-0.415 -0.095,-0.058 -0.156,0.173 -0.156,0.593 m -23.657,28.57 c 3.945,0.543 6.407,2.306 9.264,6.635 0.615,0.933 1.942,3.454 1.942,3.691 0,0.069 0.133,0.422 0.295,0.785 1.067,2.389 2.36,7.27 3.288,12.411 0.696,3.864 0.62,3.611 1.28,4.229 0.335,0.314 1.077,0.886 1.648,1.271 0.571,0.385 1.178,0.829 1.349,0.987 0.171,0.157 1.258,0.998 2.416,1.868 2.977,2.237 2.773,1.897 2.361,3.928 -0.797,3.934 -0.474,8.456 0.921,12.931 0.334,1.07 0.607,2.016 0.607,2.101 0,0.086 0.098,0.344 0.218,0.573 0.12,0.23 0.268,0.65 0.33,0.934 0.061,0.284 0.243,0.776 0.403,1.094 0.566,1.117 0.812,1.057 -4.328,1.057 -2.542,0 -5.028,-0.07 -5.526,-0.156 -0.497,-0.085 -1.342,-0.228 -1.877,-0.316 -2.594,-0.427 -5.755,-1.262 -7.08,-1.871 -0.363,-0.167 -0.715,-0.303 -0.783,-0.303 -4.84182,-2.11373 -8.92458,-5.06245 -12.256,-9.257 -0.255,-0.341 -0.663,-0.831 -0.906,-1.089 -0.411,-0.435 -1.971,-2.67 -1.971,-2.822 0,-0.037 -0.19,-0.364 -0.422,-0.726 -4.3931,-8.27269 -8.42172,-17.28973 -6.582,-26.895 1.31,-6.172 4.6,-9.959 9.395,-10.814 2.01417,-0.53356 4.20868,-0.48634 6.014,-0.246 m 92.451,14.084 c 14.239,4.558 21.999,36.324 11.453,46.885 -9.389,9.404 -24.378,-8.458 -24.435,-29.12 -0.034,-12.407 5.606,-20.125 12.982,-17.765 m -49.383,13.573 c 0.41,0.135 1.042,0.38 1.405,0.545 0.363,0.165 0.722,0.301 0.799,0.301 0.344,0 1.6,0.808 2.468,1.588 0.361,0.325 0.712,0.591 0.779,0.591 0.187,0 1.332,1.12 1.841,1.801 0.251,0.336 0.706,0.856 1.009,1.156 1.016,1.001 2.171,2.603 3.759,5.214 1.57,2.581 1.959,3.26 2.756,4.812 l 0.793,1.543 0.02,-0.999 c 0.043,-2.197 -0.453,-1.869 4.347,-2.866 2.233,-0.464 7.666,-1.741 8.38,-1.971 1.208,-0.388 -1.332,-0.903 -4.547,-0.922 -1.758,-0.011 -2.224,-0.051 -1.819,-0.158 0.3,-0.08 1.468,-0.435 2.597,-0.79 l 2.051,-0.645 1.84,0.714 c 1.011,0.392 2.347,0.905 2.968,1.139 1.251,0.472 1.182,0.366 1.6,2.477 0.498,2.514 2.091,7.011 3.555,10.039 0.766,1.584 0.78,1.636 0.444,1.685 -0.191,0.028 -1.152,0.261 -2.137,0.517 -0.984,0.257 -1.947,0.505 -2.14,0.551 -0.256,0.063 -0.35,0.016 -0.35,-0.174 0,-0.243 0.54,-3.486 0.708,-4.252 0.238,-1.088 -0.268,-0.088 -0.7,1.383 -0.28,0.953 -0.852,2.531 -1.27,3.506 -0.419,0.975 -0.761,1.826 -0.761,1.89 -2.27301,5.31825 -5.5124,11.08642 -9.808,13.348 -14.50255,6.20371 -25.90024,-4.74882 -31.593,-17.4 0,-0.068 -0.135,-0.42 -0.3,-0.783 -0.833,-1.83 -1.454,-4.229 -2.188,-8.442 -0.202,-1.161 -0.148,-3.712 0.127,-5.992 0.297,-2.453 2.08,-5.339 4.384,-7.095 2.786,-2.122 6.58,-3.098 8.983,-2.311"
         stroke="none"
         fill="#000000"
         fill-rule="evenodd"
         sodipodi:nodetypes="ccscccccccccccscccsccsccccccsccccccccccccccccscccsccccccscccccccccccccccscccccccccscccccccsccssccsccccccscccccccccccccccccscccccsccscssccsscccscccscccccccccccccssccccccsscccccsccccccccccccccccccccscscsccccccccccccccssccccccsccccccccccccccccscccccccccccccccccccsccccccccccccccccccccccccccccccscccccccccccccsccccscccccccccccccccccccccccscccccccccccccsscsccccccccccccccccccscccccccccccsccccccsccccccccccsccssccccccsccccscccsccccscccsccccccscccccccccsscscccccccccccccccccccsccccccccccc"
         style="fill:#ffffff;stroke:#000000;stroke-width:3;stroke-linecap:butt;stroke-linejoin:round;stroke-miterlimit:4;stroke-dasharray:none;stroke-opacity:1;paint-order:markers stroke fill" />
    </g>
  </g>
</svg>
